<svg width="11" height="11" viewBox="0 0 11 11" fill="none" xmlns="http://www.w3.org/2000/svg">
<path d="M5.5 0C4.4122 0 3.34884 0.322569 2.44437 0.926917C1.5399 1.53126 0.834947 2.39025 0.418665 3.39524C0.00238297 4.40023 -0.106535 5.5061 0.105683 6.573C0.317902 7.63989 0.841726 8.6199 1.61091 9.38909C2.3801 10.1583 3.36011 10.6821 4.427 10.8943C5.4939 11.1065 6.59977 10.9976 7.60476 10.5813C8.60975 10.1651 9.46874 9.4601 10.0731 8.55563C10.6774 7.65116 11 6.5878 11 5.5C10.9972 4.04218 10.4168 2.64489 9.38594 1.61406C8.35511 0.583228 6.95782 0.00285009 5.5 0V0ZM5.5 10.3529C4.54018 10.3529 3.60191 10.0683 2.80385 9.53507C2.00579 9.00182 1.38378 8.2439 1.01647 7.35714C0.649162 6.47038 0.553057 5.49462 0.740309 4.55324C0.927561 3.61186 1.38976 2.74715 2.06845 2.06845C2.74715 1.38976 3.61186 0.927558 4.55324 0.740307C5.49462 0.553055 6.47038 0.649159 7.35714 1.01647C8.2439 1.38377 9.00183 2.00579 9.53507 2.80385C10.0683 3.60191 10.3529 4.54018 10.3529 5.5C10.3515 6.78664 9.83977 8.02018 8.92997 8.92997C8.02018 9.83976 6.78664 10.3515 5.5 10.3529ZM3.66667 5.5C3.66667 5.88478 3.78774 6.25981 4.01272 6.57197C4.23771 6.88412 4.55521 7.11757 4.92025 7.23925C5.28529 7.36093 5.67936 7.36467 6.04664 7.24994C6.41392 7.13521 6.7358 6.90783 6.96667 6.6C7.01815 6.53135 7.09479 6.48597 7.17974 6.47384C7.26468 6.4617 7.35096 6.48381 7.41961 6.53529C7.48825 6.58678 7.53363 6.66342 7.54577 6.74836C7.5579 6.83331 7.5358 6.91959 7.48431 6.98823C7.17196 7.40471 6.73648 7.71234 6.23957 7.86757C5.74266 8.02279 5.20951 8.01773 4.71563 7.85311C4.22176 7.68848 3.7922 7.37263 3.4878 6.95031C3.18341 6.52798 3.01961 6.02059 3.01961 5.5C3.01961 4.97941 3.18341 4.47201 3.4878 4.04969C3.7922 3.62736 4.22176 3.31152 4.71563 3.14689C5.20951 2.98227 5.74266 2.97721 6.23957 3.13243C6.73648 3.28765 7.17196 3.59529 7.48431 4.01176C7.50981 4.04575 7.52835 4.08443 7.5389 4.12559C7.54944 4.16675 7.55178 4.20958 7.54577 4.25164C7.53976 4.29369 7.52553 4.33416 7.50388 4.37072C7.48223 4.40728 7.4536 4.43921 7.41961 4.46471C7.38562 4.4902 7.34694 4.50874 7.30579 4.51929C7.26463 4.52983 7.2218 4.53217 7.17974 4.52616C7.13768 4.52015 7.09721 4.50592 7.06066 4.48427C7.0241 4.46262 6.99216 4.43399 6.96667 4.4C6.7358 4.09217 6.41392 3.86479 6.04664 3.75006C5.67936 3.63533 5.28529 3.63907 4.92025 3.76075C4.55521 3.88243 4.23771 4.11588 4.01272 4.42803C3.78774 4.74018 3.66667 5.11521 3.66667 5.5Z" fill="black"/>
</svg>
