<svg width="31" height="31" viewBox="0 0 31 31" fill="none" xmlns="http://www.w3.org/2000/svg">
<path d="M15.7273 0C19.8769 0 20.3947 0.0154999 22.0227 0.0929999C23.6493 0.1705 24.7566 0.42935 25.731 0.81375C26.739 1.20745 27.5881 1.74065 28.4373 2.6009C29.2139 3.37574 29.8148 4.31301 30.1982 5.3475C30.5755 6.33485 30.832 7.46015 30.9084 9.1109C30.9802 10.7632 31 11.2886 31 15.5C31 19.7113 30.9848 20.2368 30.9084 21.8891C30.832 23.5398 30.5755 24.6636 30.1982 25.6525C29.8159 26.6876 29.2148 27.6251 28.4373 28.3991C27.6736 29.187 26.7501 29.7968 25.731 30.1862C24.7581 30.5691 23.6493 30.8295 22.0227 30.907C20.3947 30.9798 19.8769 31 15.7273 31C11.5777 31 11.06 30.9845 9.4319 30.907C7.80535 30.8295 6.69808 30.5691 5.72368 30.1862C4.70396 29.7979 3.78027 29.188 3.01735 28.3991C2.24059 27.6244 1.63965 26.6871 1.25641 25.6525C0.877645 24.6651 0.62259 23.5398 0.546226 21.8891C0.474444 20.2368 0.45459 19.7113 0.45459 15.5C0.45459 11.2886 0.469862 10.7632 0.546226 9.1109C0.62259 7.4586 0.877645 6.3364 1.25641 5.3475C1.63859 4.31238 2.23967 3.37485 3.01735 2.6009C3.78049 1.81231 4.70412 1.20238 5.72368 0.81375C6.69808 0.42935 7.80383 0.1705 9.4319 0.0929999C11.06 0.0201499 11.5777 0 15.7273 0ZM15.7273 7.75C13.702 7.75 11.7597 8.56652 10.3276 10.0199C8.8955 11.4733 8.09095 13.4446 8.09095 15.5C8.09095 17.5554 8.8955 19.5267 10.3276 20.9801C11.7597 22.4335 13.702 23.25 15.7273 23.25C17.7526 23.25 19.6949 22.4335 21.127 20.9801C22.5591 19.5267 23.3637 17.5554 23.3637 15.5C23.3637 13.4446 22.5591 11.4733 21.127 10.0199C19.6949 8.56652 17.7526 7.75 15.7273 7.75V7.75ZM25.6546 7.3625C25.6546 6.84864 25.4535 6.35583 25.0954 5.99248C24.7374 5.62913 24.2518 5.425 23.7455 5.425C23.2392 5.425 22.7536 5.62913 22.3956 5.99248C22.0375 6.35583 21.8364 6.84864 21.8364 7.3625C21.8364 7.87636 22.0375 8.36917 22.3956 8.73252C22.7536 9.09587 23.2392 9.3 23.7455 9.3C24.2518 9.3 24.7374 9.09587 25.0954 8.73252C25.4535 8.36917 25.6546 7.87636 25.6546 7.3625ZM15.7273 10.85C16.9425 10.85 18.1079 11.3399 18.9672 12.212C19.8264 13.084 20.3091 14.2667 20.3091 15.5C20.3091 16.7333 19.8264 17.916 18.9672 18.788C18.1079 19.6601 16.9425 20.15 15.7273 20.15C14.5121 20.15 13.3467 19.6601 12.4875 18.788C11.6282 17.916 11.1455 16.7333 11.1455 15.5C11.1455 14.2667 11.6282 13.084 12.4875 12.212C13.3467 11.3399 14.5121 10.85 15.7273 10.85V10.85Z" fill="#D7CDB3"/>
</svg>
