<svg width="37" height="37" viewBox="0 0 37 37" fill="none" xmlns="http://www.w3.org/2000/svg">
<path d="M4.2533 0.694088C3.78699 0.243684 3.16245 -0.00554015 2.51419 9.34708e-05C1.86592 0.00572709 1.24581 0.265769 0.787396 0.724209C0.328986 1.18265 0.0689619 1.80281 0.0633287 2.45112C0.0576954 3.09942 0.306903 3.72401 0.757277 4.19035L15.0356 18.4696L0.754805 32.7489C0.518662 32.977 0.330306 33.2498 0.200728 33.5515C0.0711502 33.8531 0.00294609 34.1776 9.33519e-05 34.5059C-0.00275938 34.8342 0.0597969 35.1598 0.184113 35.4637C0.308429 35.7676 0.492016 36.0436 0.724159 36.2758C0.956303 36.5079 1.23236 36.6915 1.53621 36.8159C1.84006 36.9402 2.16563 37.0028 2.49392 36.9999C2.82221 36.9971 3.14664 36.9288 3.44829 36.7993C3.74993 36.6697 4.02275 36.4813 4.25083 36.2451L18.5316 21.9659L32.8099 36.2451C33.2762 36.6955 33.9008 36.9448 34.549 36.9391C35.1973 36.9335 35.8174 36.6735 36.2758 36.215C36.7343 35.7566 36.9943 35.1364 36.9999 34.4881C37.0055 33.8398 36.7563 33.2152 36.306 32.7489L22.0276 18.4696L36.306 4.19035C36.7563 3.72401 37.0055 3.09942 36.9999 2.45112C36.9943 1.80281 36.7343 1.18265 36.2758 0.724209C35.8174 0.265769 35.1973 0.00572709 34.549 9.34708e-05C33.9008 -0.00554015 33.2762 0.243684 32.8099 0.694088L18.5316 14.9734L4.2533 0.691616V0.694088Z" fill="white"/>
</svg>
