<?xml version="1.0" encoding="UTF-8"?>
<svg id="Layer_1" data-name="Layer 1" xmlns="http://www.w3.org/2000/svg" viewBox="0 0 2400.44 834.45">
  <defs>
    <style>
      .cls-1, .cls-2 {
        fill: #04140b;
      }

      .cls-2 {
        fill-rule: evenodd;
      }
    </style>
  </defs>
  <path class="cls-2" d="m10.25,0h181c13.67,0,13.67,20.72,0,20.72H10.25C-3.41,20.72-3.42,0,10.25,0h0Zm0,834.45h181c13.67,0,13.67-20.72,0-20.72H10.25c-13.67,0-13.67,20.72,0,20.72h0Zm16.22-33.24h148.56c13.67,0,13.66-20.72,0-20.72H26.48c-13.66,0-13.67,20.72,0,20.72h0Zm140.55-33.25V66.49H34.49v701.47h132.54Zm-22.85-28.31c0,10.48-15.88,10.48-15.88,0V94.8c0-10.48,15.88-10.48,15.88,0v644.85h0Zm-35.48,0c0,10.48-15.88,10.48-15.88,0V94.8c0-10.48,15.88-10.48,15.88,0v644.85h0Zm-35.48,0c0,10.48-15.88,10.48-15.88,0V94.8c0-10.48,15.88-10.48,15.88,0v644.85h0ZM26.48,33.24h148.56c13.67,0,13.66,20.72,0,20.72H26.48c-13.66,0-13.67-20.72,0-20.72h0Z"/>
  <g>
    <path class="cls-1" d="m532.74,66.03v504.77h-101.4V136.12l-128.24,442.14h-9.69L161.44,146.56v424.24h-14.91V104.8l-11.93-38.77h108.86l96.93,328.06,94.69-328.06h97.67Z"/>
    <path class="cls-1" d="m869,570.8h-251.26V66.03h237.84v13.42h-136.44v228.15h108.11v13.42h-108.11v236.35h149.86v13.42Z"/>
    <path class="cls-1" d="m1141.14,557.38v13.42h-261.7v-17.15l160.3-474.2h-148.37v-13.42h248.28v11.93l-161.79,479.42h163.28Z"/>
    <path class="cls-1" d="m1445.34,570.8h-251.26V66.03h237.84v13.42h-136.44v228.15h108.11v13.42h-108.11v236.35h149.86v13.42Z"/>
    <path class="cls-1" d="m1608.62,66.03c146.88,0,200.56,77.54,200.56,246.79,0,155.08-48.46,257.98-194.6,257.98h-123.77V66.03h117.8Zm2.98,491.35c68.59,0,87.23-117.06,87.23-237.1,0-162.54-32.06-240.83-96.18-240.83h-10.44v477.93h19.39Z"/>
    <path class="cls-1" d="m2128.3,570.8h-251.26V66.03h237.84v13.42h-136.44v228.15h108.11v13.42h-108.11v236.35h149.86v13.42Z"/>
    <path class="cls-1" d="m2372.85,92.88c-25.35-11.93-48.46-18.64-79.78-17.89-35.04,0-60.39,21.62-60.39,58.9,0,42.5,18.64,76.05,77.54,137.93,67.1,70.83,90.22,105.87,90.22,167.01-.75,82.76-49.95,138.68-149.86,138.68-30.57,0-71.58-8.95-99.16-25.35l6.71-11.93c32.06,17.89,59.65,23.11,93.2,23.86,43.99,0,68.59-16.4,68.59-56.67,0-46.97-21.62-83.51-76.8-139.43-61.14-61.14-91.71-108.11-91.71-175.21,0-79.03,57.41-131.22,140.17-131.22,31.31,0,60.39,5.96,87.23,19.39l-5.96,11.93Z"/>
  </g>
  <g>
    <path class="cls-1" d="m384.14,723.34v68.69c-11.23,4.1-22.03,6.48-32.4,6.48-32.18,0-51.19-22.68-51.19-73.87,0-63.72,28.51-78.41,53.35-78.41,12.31,0,20.52,3.89,26.57,7.56l-1.73,2.38c-5.83-3.02-12.74-5.62-22.03-5.62-17.28,0-35.86,10.37-35.86,72.58,0,43.2,9.29,71.07,34.13,71.07,3.24,0,6.91-.43,10.58-1.3v-65.67h-17.06v-3.89h35.64Z"/>
    <path class="cls-1" d="m526.27,795.49h-19.87l-10.8-48.82c-4.1-16.42-10.37-23.76-19.44-23.76h-6.48v72.58h-18.58v-146.23h30.89c26.35,0,37.37,15.55,37.37,34.56,0,23.11-14.69,35.21-32.83,37.37,13.61,2.38,23.33,10.58,27.65,27.43l12.1,46.87Zm-56.59-76.46h8.64c12.53,0,20.95-10.15,20.95-33.7,0-18.36-4.1-32.18-20.74-32.18h-8.86v65.88Z"/>
    <path class="cls-1" d="m653.28,795.49h-64.8v-146.23h60.7v3.89h-42.12v66.1h33.91v3.89h-33.91v68.47h46.22v3.89Z"/>
    <path class="cls-1" d="m778.99,795.49h-64.8v-146.23h60.7v3.89h-42.12v66.1h33.91v3.89h-33.91v68.47h46.22v3.89Z"/>
    <path class="cls-1" d="m839.9,649.25h18.58v146.23h-18.58v-146.23Zm78.41,146.23h-21.6l-32.83-73.44,42.77-72.79h4.54l-33.91,57.89,41.04,88.35Z"/>
    <path class="cls-1" d="m1137.11,795.49h-19.87l-10.8-48.82c-4.1-16.42-10.37-23.76-19.44-23.76h-6.48v72.58h-18.58v-146.23h30.89c26.35,0,37.37,15.55,37.37,34.56,0,23.11-14.69,35.21-32.83,37.37,13.61,2.38,23.33,10.58,27.65,27.43l12.1,46.87Zm-56.59-76.46h8.64c12.53,0,20.95-10.15,20.95-33.7,0-18.36-4.1-32.18-20.74-32.18h-8.86v65.88Z"/>
    <path class="cls-1" d="m1264.12,795.49h-64.8v-146.23h60.7v3.89h-42.12v66.1h33.91v3.89h-33.91v68.47h46.22v3.89Z"/>
    <path class="cls-1" d="m1376.44,655.95c-6.91-3.24-13.39-4.97-20.95-4.75-13.18,0-21.38,8.21-21.38,22.03,0,15.77,8.64,26.14,23.11,40.61,19.66,19.66,26.35,29.16,26.35,47.52,0,22.03-13.18,36.29-37.58,36.29-7.99,0-19.22-2.16-27.86-7.56l1.73-3.02c9.07,5.18,17.71,6.7,25.92,6.7,13.18,0,22.25-5.4,22.46-21.82,0-14.69-5.62-23.76-23.11-40.61-15.77-15.34-26.35-28.3-26.35-48.38,0-22.25,15.12-35.64,36.29-35.64,8.42,0,16.2,1.94,22.9,5.4l-1.51,3.24Z"/>
    <path class="cls-1" d="m1515.76,649.25v3.89h-32.18v142.35h-18.58v-142.35h-32.18v-3.89h82.95Z"/>
    <path class="cls-1" d="m1604.53,745.59h-34.34l-11.23,49.9h-4.54l30.89-136.51-2.16-9.72h19.22l32.4,146.23h-19.22l-11.02-49.9Zm-.86-3.89l-16.2-73.01-16.42,73.01h32.62Z"/>
    <path class="cls-1" d="m1714.69,649.25v105.63c0,26.78,6.91,38.23,23.54,38.23,12.1,0,25.7-4.54,25.7-38.88v-104.98h4.32v104.55c0,33.48-13.18,44.5-33.05,44.5-26.57,0-39.1-12.31-39.1-48.17v-100.87h18.58Z"/>
    <path class="cls-1" d="m1914.49,795.49h-19.87l-10.8-48.82c-4.1-16.42-10.37-23.76-19.44-23.76h-6.48v72.58h-18.58v-146.23h30.89c26.35,0,37.37,15.55,37.37,34.56,0,23.11-14.69,35.21-32.83,37.37,13.61,2.38,23.33,10.58,27.65,27.43l12.1,46.87Zm-56.59-76.46h8.64c12.53,0,20.95-10.15,20.95-33.7,0-18.36-4.1-32.18-20.74-32.18h-8.86v65.88Z"/>
    <path class="cls-1" d="m2016.66,745.59h-34.34l-11.23,49.9h-4.54l30.89-136.51-2.16-9.72h19.22l32.4,146.23h-19.22l-11.02-49.9Zm-.86-3.89l-16.2-73.01-16.42,73.01h32.62Z"/>
    <path class="cls-1" d="m2181.47,649.25v146.23h-19.22l-47.95-123.12v123.12h-4.32v-132.63l-5.4-13.61h19.66l52.92,134.79v-134.79h4.32Z"/>
    <path class="cls-1" d="m2324.68,649.25v3.89h-32.18v142.35h-18.58v-142.35h-32.18v-3.89h82.95Z"/>
  </g>
</svg>